<?xml version="1.0" encoding="UTF-8" standalone="no"?>
<!-- Created with Inkscape (http://www.inkscape.org/) -->

<svg
   xmlns:dc="http://purl.org/dc/elements/1.1/"
   xmlns:cc="http://creativecommons.org/ns#"
   xmlns:rdf="http://www.w3.org/1999/02/22-rdf-syntax-ns#"
   xmlns:svg="http://www.w3.org/2000/svg"
   xmlns="http://www.w3.org/2000/svg"
   xmlns:sodipodi="http://sodipodi.sourceforge.net/DTD/sodipodi-0.dtd"
   xmlns:inkscape="http://www.inkscape.org/namespaces/inkscape"
   width="67.274086"
   height="67.288292"
   viewBox="0 0 18.986242 18.990252"
   version="1.1"
   id="svg8"
   inkscape:version="0.48.5 r10040"
   sodipodi:docname="icon.svg">
  <defs
     id="defs2" />
  <sodipodi:namedview
     id="base"
     pagecolor="#ffffff"
     bordercolor="#666666"
     borderopacity="1.0"
     inkscape:pageopacity="0.0"
     inkscape:pageshadow="2"
     inkscape:zoom="6.5421991"
     inkscape:cx="67.845985"
     inkscape:cy="66.248452"
     inkscape:document-units="mm"
     inkscape:current-layer="layer1"
     showgrid="false"
     showguides="true"
     inkscape:guide-bbox="true"
     inkscape:window-width="1920"
     inkscape:window-height="1031"
     inkscape:window-x="1920"
     inkscape:window-y="0"
     inkscape:window-maximized="1"
     units="mm"
     borderlayer="false"
     fit-margin-top="2.44"
     fit-margin-left="0.38"
     fit-margin-right="0.38"
     fit-margin-bottom="2.45" />
  <metadata
     id="metadata5">
    <rdf:RDF>
      <cc:Work
         rdf:about="">
        <dc:format>image/svg+xml</dc:format>
        <dc:type
           rdf:resource="http://purl.org/dc/dcmitype/StillImage" />
        <dc:title />
      </cc:Work>
    </rdf:RDF>
  </metadata>
  <g
     inkscape:label="Layer 1"
     inkscape:groupmode="layer"
     id="layer1"
     transform="translate(-76.384957,-41.269045)">
    <g
       id="g4560"
       inkscape:export-xdpi="629.90485"
       inkscape:export-ydpi="629.90485">
      <ellipse
         ry="1.830128"
         rx="1.8405184"
         cy="45.539173"
         cx="82.056442"
         id="path4496"
         style="fill:#ff0000;fill-opacity:1;stroke:none"
         sodipodi:cx="82.056442"
         sodipodi:cy="45.539173"
         sodipodi:rx="1.8405184"
         sodipodi:ry="1.830128"
         d="m 83.896961,45.539173 c 0,1.010752 -0.824029,1.830128 -1.840519,1.830128 -1.01649,0 -1.840518,-0.819376 -1.840518,-1.830128 0,-1.010752 0.824028,-1.830128 1.840518,-1.830128 1.01649,0 1.840519,0.819376 1.840519,1.830128 z" />
      <circle
         r="4.5373888"
         cy="53.118526"
         cx="81.302345"
         id="path4524"
         style="fill:#ff9100;fill-opacity:1;stroke:none"
         sodipodi:cx="81.302345"
         sodipodi:cy="53.118526"
         sodipodi:rx="4.5373888"
         sodipodi:ry="4.5373888"
         d="m 85.839734,53.118526 c 0,2.505931 -2.031458,4.537389 -4.537389,4.537389 -2.50593,0 -4.537389,-2.031458 -4.537389,-4.537389 0,-2.50593 2.031459,-4.537388 4.537389,-4.537388 2.505931,0 4.537389,2.031458 4.537389,4.537388 z" />
      <circle
         r="2.441241"
         cy="52.479462"
         cx="92.549957"
         id="path4532"
         style="fill:#b0d240;fill-opacity:1;stroke:none"
         sodipodi:cx="92.549957"
         sodipodi:cy="52.479462"
         sodipodi:rx="2.441241"
         sodipodi:ry="2.441241"
         d="m 94.991198,52.479462 c 0,1.34826 -1.092981,2.441241 -2.441241,2.441241 -1.34826,0 -2.441241,-1.092981 -2.441241,-2.441241 0,-1.348261 1.092981,-2.441241 2.441241,-2.441241 1.34826,0 2.441241,1.09298 2.441241,2.441241 z" />
      <path
         sodipodi:nodetypes="zcczccz"
         inkscape:connector-curvature="0"
         id="path4538"
         d="m 84.689407,48.37664 c 1.282258,-0.737338 1.674266,-1.368369 1.674266,-1.368369 l 1.797214,2.600151 c 0,0 -0.966328,0.225296 -1.758775,0.838802 -0.792447,0.613507 -0.589465,2.204849 -0.589465,2.204849 l -4.072494,-4.050709 c 0.885597,0.09528 1.666995,0.512614 2.949254,-0.224724 z"
         style="fill:#ff9100;fill-opacity:1;stroke:none" />
      <path
         sodipodi:nodetypes="ccczcczc"
         inkscape:connector-curvature="0"
         id="path4544"
         d="m 90.696655,55.994342 c -0.733113,0.943361 -3.093093,-0.562383 -3.093093,-0.562383 l -0.383442,2.326212 c 0,0 1.922739,-0.03014 4.013352,-0.894696 2.090614,-0.864555 3.437236,-3.179417 3.437236,-3.179417 l -4.191526,0.111501 c 0,0 0.950586,1.255418 0.217473,2.198779 z"
         style="fill:#b0d240;fill-opacity:1;stroke:none" />
      <path
         sodipodi:nodetypes="zcczccz"
         inkscape:connector-curvature="0"
         id="path4540"
         d="m 88.8817,52.415556 c -0.0536,1.286663 -2.470337,3.063045 -2.470337,3.063045 l 1.91301,1.553131 c 0,0 1.064494,-3.026123 1.247522,-4.565051 0.183028,-1.538928 -0.198874,-4.722625 -0.198874,-4.722625 l -2.73407,1.538536 c 0,0 2.296348,1.846301 2.242749,3.132964 z"
         style="fill:#ff0000;fill-opacity:1;stroke:none" />
      <circle
         r="1.6743594"
         cy="48.005981"
         cx="87.718597"
         id="path4528"
         style="fill:#ff5900;fill-opacity:1;stroke:none"
         sodipodi:cx="87.718597"
         sodipodi:cy="48.005981"
         sodipodi:rx="1.6743594"
         sodipodi:ry="1.6743594"
         d="m 89.392957,48.005981 c 0,0.924724 -0.749636,1.67436 -1.67436,1.67436 -0.924723,0 -1.674359,-0.749636 -1.674359,-1.67436 0,-0.924723 0.749636,-1.674359 1.674359,-1.674359 0.924724,0 1.67436,0.749636 1.67436,1.674359 z" />
      <circle
         r="1.2781378"
         cy="56.531158"
         cx="87.143425"
         id="path4530"
         style="fill:#bd2c27;fill-opacity:1;stroke:none"
         sodipodi:cx="87.143425"
         sodipodi:cy="56.531158"
         sodipodi:rx="1.2781378"
         sodipodi:ry="1.2781378"
         d="m 88.421563,56.531158 c 0,0.705896 -0.572242,1.278138 -1.278138,1.278138 -0.705896,0 -1.278138,-0.572242 -1.278138,-1.278138 0,-0.705896 0.572242,-1.278137 1.278138,-1.278137 0.705896,0 1.278138,0.572241 1.278138,1.278137 z" />
      <path
         inkscape:connector-curvature="0"
         id="path4546"
         d="M 87.335724,49.900961 88.160885,49.608422 86.638949,49.28259 z"
         style="fill:#ff5900;fill-opacity:1;stroke:none" />
      <path
         inkscape:connector-curvature="0"
         id="path4548"
         d="m 88.67033,55.987568 -0.727967,-0.434758 0.382008,1.478921 z"
         style="fill:#bd2c27;fill-opacity:1;stroke:none" />
    </g>
  </g>
</svg>
